<?xml version="1.0" encoding="utf-8"?>
<!-- Generator: Adobe Illustrator 21.0.2, SVG Export Plug-In . SVG Version: 6.00 Build 0)  -->
<svg version="1.1" id="Слой_1" xmlns="http://www.w3.org/2000/svg" xmlns:xlink="http://www.w3.org/1999/xlink" x="0px" y="0px"
	 viewBox="0 0 120 22" style="enable-background:new 0 0 120 22;" xml:space="preserve">
<style type="text/css">
	.st0{fill:#3F464C;}
</style>
<g>
	<path class="st0" d="M118.8,0.2c-0.2,0.8-0.9,1.4-2,1.5v1h1.9V8h1.4V0.2H118.8z"/>
	<path class="st0" d="M32.6,6.8c-4.3,0-7.3,3.2-7.3,7.6c0,4.4,3,7.6,7.3,7.6s7.3-3.2,7.3-7.6C39.8,10,36.8,6.8,32.6,6.8z M32.6,19.5
		c-2.4,0-4.4-1.8-4.4-5.1c0-3.3,2.1-5.1,4.4-5.1s4.4,1.8,4.4,5.1C37,17.7,34.9,19.5,32.6,19.5z"/>
	<path class="st0" d="M16,6.8c-1.8,0-3.6,0.7-4.8,2.7C10.5,7.7,8.8,6.8,7,6.8c-1.7,0-3.4,0.7-4.3,2.3V7.2H0v14.3h2.7v-8.6
		c0-2.1,1.3-3.6,3.3-3.6c2.1,0,3,1.4,3,3.3v9h2.8v-8.7c0-2.1,1.3-3.6,3.3-3.6c2.1,0,3,1.4,3,3.3v9h2.7v-9.3
		C20.9,8.5,18.5,6.8,16,6.8z"/>
	<path class="st0" d="M57.2,0h-2.7v9.3c-0.5-1.2-1.8-2.4-4.3-2.4c-4,0-6.7,3.5-6.7,7.5c0,4.3,2.6,7.6,6.7,7.6c2.2,0,3.7-1.2,4.4-2.6
		v0.2c0,0.9,0.1,1.6,0.1,1.9h2.7c0-0.2-0.1-1.3-0.1-2.6V0z M50.3,19.5c-2.7,0-4.2-2.2-4.2-5.1c0-2.9,1.7-5,4.2-5c2.5,0,4.1,2,4.1,5
		C54.5,17.2,52.9,19.5,50.3,19.5z"/>
	<path class="st0" d="M95.1,6.8c-3.6,0-6.8,3.1-6.8,7.6c0,4.9,3.3,7.7,7.2,7.7c3.3,0,5.6-2,6.4-4.5l-2.4-0.8c-0.5,1.6-1.7,2.9-4,2.9
		c-2.4,0-4.2-1.8-4.3-4.3h10.7c0-0.2,0.1-0.5,0.1-0.9C101.9,9.8,99.4,6.8,95.1,6.8z M91.2,12.9c0.1-1.8,1.5-3.7,3.9-3.7
		c2.5,0,3.8,1.6,3.9,3.7H91.2z"/>
	<path class="st0" d="M112.3,0c-1.2,0-2,0.5-2.5,1.3c-0.5,0.8-0.7,1.8-0.7,2.8c0,1,0.2,2,0.7,2.8c0.5,0.8,1.3,1.3,2.5,1.3
		c1.2,0,2-0.5,2.5-1.3c0.5-0.8,0.7-1.8,0.7-2.8c0-1-0.2-2-0.7-2.8C114.3,0.5,113.5,0,112.3,0z M113.5,6.3c-0.3,0.3-0.6,0.6-1.2,0.6
		c-0.6,0-0.9-0.2-1.2-0.6c-0.4-0.5-0.5-1.2-0.5-2.2c0-1,0.2-1.7,0.5-2.2c0.3-0.3,0.6-0.6,1.2-0.6c0.6,0,0.9,0.2,1.2,0.6
		c0.4,0.5,0.5,1.2,0.5,2.2C114.1,5.1,113.9,5.8,113.5,6.3z"/>
	<rect x="80.8" class="st0" width="2.8" height="21.6"/>
	<path class="st0" d="M74.9,7.2h-2.8v8.6c0,2.2-1.1,3.7-3.4,3.7c-2.3,0-3.2-1.7-3.2-3.7V7.2h-2.8v9c0,3.2,2,5.7,5.3,5.7
		c1.7,0,3.4-0.7,4.2-2.2c0,0.6,0.1,1.4,0.1,1.7H75C75,21,74.9,20,74.9,18.9V7.2z"/>
</g>
</svg>
