<?xml version="1.0" encoding="utf-8"?>
<!-- Generator: Adobe Illustrator 21.0.2, SVG Export Plug-In . SVG Version: 6.00 Build 0)  -->
<svg version="1.1" id="Слой_1" xmlns="http://www.w3.org/2000/svg" xmlns:xlink="http://www.w3.org/1999/xlink" x="0px" y="0px"
	 viewBox="0 0 156 30" style="enable-background:new 0 0 156 30;" xml:space="preserve">
<style type="text/css">
	.st0{fill:#FFFFFF;}
</style>
<g>
	<path class="st0" d="M42.3,9.3c-5.5,0-9.5,4.4-9.5,10.3c0,6,3.9,10.4,9.5,10.4c5.5,0,9.5-4.4,9.5-10.4C51.8,13.7,47.9,9.3,42.3,9.3
		z M42.3,26.6c-3.1,0-5.8-2.4-5.8-7c0-4.5,2.7-6.9,5.8-6.9s5.8,2.4,5.8,6.9C48.1,24.1,45.4,26.6,42.3,26.6z"/>
	<path class="st0" d="M20.8,9.3c-2.3,0-4.7,0.9-6.2,3.7c-1-2.5-3.2-3.7-5.5-3.7c-2.2,0-4.5,1-5.6,3.2V9.9H0v19.5h3.6V17.6
		c0-2.9,1.7-5,4.3-5c2.8,0,3.9,1.9,3.9,4.5v12.3h3.6V17.6c0-2.8,1.7-4.9,4.3-4.9c2.7,0,3.9,1.9,3.9,4.5v12.3h3.6V16.7
		C27.2,11.6,24,9.3,20.8,9.3z"/>
	<path class="st0" d="M154.4,0.2c-0.2,1.1-1.2,2-2.7,2v1.3h2.4v7.3h1.8V0.2H154.4z"/>
	<path class="st0" d="M146,0c-1.5,0-2.6,0.7-3.2,1.7c-0.7,1.1-0.9,2.4-0.9,3.8c0,1.4,0.2,2.7,0.9,3.8c0.7,1,1.7,1.7,3.2,1.7
		s2.5-0.7,3.2-1.7c0.7-1.1,0.9-2.4,0.9-3.8c0-1.4-0.2-2.7-0.9-3.8C148.6,0.7,147.5,0,146,0z M147.6,8.6c-0.4,0.5-0.8,0.8-1.6,0.8
		c-0.7,0-1.2-0.3-1.5-0.8c-0.5-0.7-0.7-1.7-0.7-3c0-1.3,0.2-2.4,0.7-3c0.3-0.5,0.8-0.8,1.5-0.8c0.7,0,1.2,0.3,1.6,0.8
		c0.5,0.7,0.7,1.7,0.7,3C148.3,6.9,148.1,7.9,147.6,8.6z"/>
	<path class="st0" d="M74.3,0h-3.6v12.6c-0.6-1.6-2.4-3.3-5.6-3.3c-5.2,0-8.8,4.7-8.8,10.2c0,5.8,3.3,10.3,8.8,10.3
		c2.9,0,4.8-1.6,5.7-3.5v0.3c0,1.2,0.1,2.2,0.2,2.6h3.5c0-0.3-0.2-1.7-0.2-3.6V0z M65.4,26.5c-3.5,0-5.4-3-5.4-7
		c0-4,2.2-6.9,5.5-6.9c3.3,0,5.3,2.8,5.3,6.8C70.8,23.5,68.8,26.5,65.4,26.5z"/>
	<rect x="105" y="0" class="st0" width="3.6" height="29.4"/>
	<path class="st0" d="M123.6,9.3c-4.7,0-8.8,4.2-8.8,10.3c0,6.6,4.3,10.4,9.3,10.4c4.3,0,7.3-2.7,8.3-6.2l-3.1-1.1
		c-0.7,2.2-2.2,3.9-5.2,3.9c-3.1,0-5.5-2.4-5.6-5.9h13.9c0-0.2,0.1-0.7,0.1-1.2C132.4,13.4,129.3,9.3,123.6,9.3z M118.6,17.6
		c0.2-2.5,2-5,5-5c3.3,0,5,2.2,5.1,5H118.6z"/>
	<path class="st0" d="M97.4,9.9h-3.6v11.8c0,3-1.5,5-4.4,5c-3,0-4.2-2.4-4.2-5V9.9h-3.6v12.3c0,4.4,2.6,7.8,6.9,7.8
		c2.2,0,4.5-0.9,5.5-3c0,0.8,0.1,1.9,0.2,2.4h3.5c-0.1-0.7-0.2-2.1-0.2-3.6V9.9z"/>
</g>
</svg>
