<svg version="1.1" id="Слой_1" xmlns="http://www.w3.org/2000/svg" x="0" y="0" viewBox="0 0 156 30" xml:space="preserve"><style>.st0{fill:#fff}</style><path class="st0" d="M42.3 9.3c-5.5 0-9.5 4.4-9.5 10.3 0 6 3.9 10.4 9.5 10.4 5.5 0 9.5-4.4 9.5-10.4 0-5.9-3.9-10.3-9.5-10.3zm0 17.3c-3.1 0-5.8-2.4-5.8-7 0-4.5 2.7-6.9 5.8-6.9s5.8 2.4 5.8 6.9-2.7 7-5.8 7zM20.8 9.3c-2.3 0-4.7.9-6.2 3.7-1-2.5-3.2-3.7-5.5-3.7-2.2 0-4.5 1-5.6 3.2V9.9H0v19.5h3.6V17.6c0-2.9 1.7-5 4.3-5 2.8 0 3.9 1.9 3.9 4.5v12.3h3.6V17.6c0-2.8 1.7-4.9 4.3-4.9 2.7 0 3.9 1.9 3.9 4.5v12.3h3.6V16.7c0-5.1-3.2-7.4-6.4-7.4zM154.4.2c-.2 1.1-1.2 2-2.7 2v1.3h2.4v7.3h1.8V.2h-1.5zM146 0c-1.5 0-2.6.7-3.2 1.7-.7 1.1-.9 2.4-.9 3.8s.2 2.7.9 3.8c.7 1 1.7 1.7 3.2 1.7s2.5-.7 3.2-1.7c.7-1.1.9-2.4.9-3.8s-.2-2.7-.9-3.8c-.6-1-1.7-1.7-3.2-1.7zm1.6 8.6c-.4.5-.8.8-1.6.8-.7 0-1.2-.3-1.5-.8-.5-.7-.7-1.7-.7-3s.2-2.4.7-3c.3-.5.8-.8 1.5-.8s1.2.3 1.6.8c.5.7.7 1.7.7 3s-.2 2.3-.7 3zM74.3 0h-3.6v12.6c-.6-1.6-2.4-3.3-5.6-3.3-5.2 0-8.8 4.7-8.8 10.2 0 5.8 3.3 10.3 8.8 10.3 2.9 0 4.8-1.6 5.7-3.5v.3c0 1.2.1 2.2.2 2.6h3.5c0-.3-.2-1.7-.2-3.6V0zm-8.9 26.5c-3.5 0-5.4-3-5.4-7s2.2-6.9 5.5-6.9 5.3 2.8 5.3 6.8c0 4.1-2 7.1-5.4 7.1zM105 0h3.6v29.4H105zM123.6 9.3c-4.7 0-8.8 4.2-8.8 10.3 0 6.6 4.3 10.4 9.3 10.4 4.3 0 7.3-2.7 8.3-6.2l-3.1-1.1c-.7 2.2-2.2 3.9-5.2 3.9-3.1 0-5.5-2.4-5.6-5.9h13.9c0-.2.1-.7.1-1.2-.1-6.1-3.2-10.2-8.9-10.2zm-5 8.3c.2-2.5 2-5 5-5 3.3 0 5 2.2 5.1 5h-10.1zM97.4 9.9h-3.6v11.8c0 3-1.5 5-4.4 5-3 0-4.2-2.4-4.2-5V9.9h-3.6v12.3c0 4.4 2.6 7.8 6.9 7.8 2.2 0 4.5-.9 5.5-3 0 .8.1 1.9.2 2.4h3.5c-.1-.7-.2-2.1-.2-3.6V9.9z"/></svg>