<svg version="1.1" id="Слой_1" xmlns="http://www.w3.org/2000/svg" x="0" y="0" viewBox="0 0 120 22" xml:space="preserve"><style>.st0{fill:#3f464c}</style><path class="st0" d="M118.8.2c-.2.8-.9 1.4-2 1.5v1h1.9V8h1.4V.2h-1.3zM32.6 6.8c-4.3 0-7.3 3.2-7.3 7.6 0 4.4 3 7.6 7.3 7.6s7.3-3.2 7.3-7.6c-.1-4.4-3.1-7.6-7.3-7.6zm0 12.7c-2.4 0-4.4-1.8-4.4-5.1s2.1-5.1 4.4-5.1 4.4 1.8 4.4 5.1-2.1 5.1-4.4 5.1zM16 6.8c-1.8 0-3.6.7-4.8 2.7-.7-1.8-2.4-2.7-4.2-2.7-1.7 0-3.4.7-4.3 2.3V7.2H0v14.3h2.7v-8.6C2.7 10.8 4 9.3 6 9.3c2.1 0 3 1.4 3 3.3v9h2.8v-8.7c0-2.1 1.3-3.6 3.3-3.6 2.1 0 3 1.4 3 3.3v9h2.7v-9.3c.1-3.8-2.3-5.5-4.8-5.5zM57.2 0h-2.7v9.3c-.5-1.2-1.8-2.4-4.3-2.4-4 0-6.7 3.5-6.7 7.5 0 4.3 2.6 7.6 6.7 7.6 2.2 0 3.7-1.2 4.4-2.6v.2c0 .9.1 1.6.1 1.9h2.7c0-.2-.1-1.3-.1-2.6V0zm-6.9 19.5c-2.7 0-4.2-2.2-4.2-5.1 0-2.9 1.7-5 4.2-5s4.1 2 4.1 5c.1 2.8-1.5 5.1-4.1 5.1zM95.1 6.8c-3.6 0-6.8 3.1-6.8 7.6 0 4.9 3.3 7.7 7.2 7.7 3.3 0 5.6-2 6.4-4.5l-2.4-.8c-.5 1.6-1.7 2.9-4 2.9-2.4 0-4.2-1.8-4.3-4.3h10.7c0-.2.1-.5.1-.9-.1-4.7-2.6-7.7-6.9-7.7zm-3.9 6.1c.1-1.8 1.5-3.7 3.9-3.7 2.5 0 3.8 1.6 3.9 3.7h-7.8zM112.3 0c-1.2 0-2 .5-2.5 1.3s-.7 1.8-.7 2.8c0 1 .2 2 .7 2.8.5.8 1.3 1.3 2.5 1.3s2-.5 2.5-1.3.7-1.8.7-2.8c0-1-.2-2-.7-2.8-.5-.8-1.3-1.3-2.5-1.3zm1.2 6.3c-.3.3-.6.6-1.2.6s-.9-.2-1.2-.6c-.4-.5-.5-1.2-.5-2.2 0-1 .2-1.7.5-2.2.3-.3.6-.6 1.2-.6s.9.2 1.2.6c.4.5.5 1.2.5 2.2.1 1-.1 1.7-.5 2.2zM80.8 0h2.8v21.6h-2.8zM74.9 7.2h-2.8v8.6c0 2.2-1.1 3.7-3.4 3.7s-3.2-1.7-3.2-3.7V7.2h-2.8v9c0 3.2 2 5.7 5.3 5.7 1.7 0 3.4-.7 4.2-2.2 0 .6.1 1.4.1 1.7H75c0-.4-.1-1.4-.1-2.5V7.2z"/></svg>